<?xml version="1.0" encoding="UTF-8" standalone="no"?>
<!-- Created with Inkscape (http://www.inkscape.org/) -->

<svg
   xmlns:dc="http://purl.org/dc/elements/1.1/"
   xmlns:cc="http://creativecommons.org/ns#"
   xmlns:rdf="http://www.w3.org/1999/02/22-rdf-syntax-ns#"
   xmlns:svg="http://www.w3.org/2000/svg"
   xmlns="http://www.w3.org/2000/svg"
   xmlns:xlink="http://www.w3.org/1999/xlink"
   xmlns:sodipodi="http://sodipodi.sourceforge.net/DTD/sodipodi-0.dtd"
   xmlns:inkscape="http://www.inkscape.org/namespaces/inkscape"
   width="687"
   height="105"
   id="svg2"
   version="1.1">
  <g
     inkscape:label="Layer 1"
     inkscape:groupmode="layer"
     id="layer1"
     transform="translate(-82.00544,-471.75518)">
    <path
       style="fill-rule:evenodd"
       id="path1755"
       d="m 191.00404,552.00358 c -4.52,0 -8.1648,-3.7123 -8.1648,-8.2795 v -40.2057 c 0,-4.5432 3.6212,-8.6972 8.1648,-8.6972 4.5434,0 8.4424,4.154 8.4424,8.6972 v 40.2731 c 0,4.591 -3.899,8.2121 -8.4424,8.2121 m -0.1,-77.3189 c -26.5741,-0.1 -48.0481,21.9134 -48.0481,49.0615 0,27.0373 21.474,48.9508 48.0481,48.9718 26.4091,-0.03 47.9766,-21.9345 47.9766,-48.9718 0,-27.1481 -21.5675,-49.1297 -47.9766,-49.0615 m 123.429,99.141 -30.31,-52.3607 27.5897,-48.1635 h -31.1422 l -11.8778,21.706 -11.6505,-21.706 h -32.2003 l 28.1421,48.5545 -29.7797,51.9458 31.2316,0.1 13.911,-25.5126 14.0471,25.4427 h 32.0389 z m 216.4139,-50.0076 c 0,-23.4837 -20.2319,-42.3284 -43.458,-42.3284 -24.1983,0 -43.552,19.2384 -43.552,43.1592 0,23.5271 20.4626,42.3479 43.552,42.3479 23.9651,0 43.458,-19.1218 43.458,-43.1787 m 10.1716,0 c 0,29.5693 -24.3819,52.9371 -53.7451,52.9371 -28.4655,0 -53.6081,-22.9748 -53.6081,-52.1063 0,-29.526 24.1753,-52.8937 53.6081,-52.8937 28.7392,0 53.7451,22.9268 53.7451,52.0629 m -217.5872,-50.4253 h 15.6608 l 37.1371,86.4311 36.9545,-86.4311 h 15.6607 v 101.5616 h -10.1475 v -90.3048 l -38.1984,90.3048 h -8.6509 l -38.2449,-90.3048 v 90.3048 h -10.1282 v -101.5616 z m 205.7787,0 h 11.0937 l 35.5694,88.9216 35.9146,-88.9216 h 11.1176 l -42.1892,101.5616 h -9.5953 l -41.9109,-101.5616 z m 97.5468,0 h 10.1955 v 101.5616 h -10.1956 v -101.5616 z m 20.9468,0 h 55.52201 v 9.2036 h -45.39621 v 36.561 h 43.85081 v 9.2038 h -43.85081 v 37.3916 h 45.39721 v 9.1806 h -55.52201 v -101.5406 z m 69.84601,73.1216 c 0.293,11.094 8.9725,20.4824 20.3686,20.4824 11.5308,0 21.0119,-8.3948 21.0119,-20.0669 0,-5.5125 -2.7196,-11.004 -7.0127,-14.4387 -4.6584,-3.8313 -9.8713,-5.2152 -15.6608,-6.7137 -6.32,-1.6615 -12.8032,-3.3441 -17.8775,-7.7031 -5.6062,-4.7976 -8.5118,-11.6955 -8.5118,-18.984 0,-16.3329 12.9185,-27.3352 28.9028,-27.3352 15.3615,0 28.0252,11.9484 27.888,27.4732 h -10.5868 c -0.688,-10.29 -8.1208,-17.7627 -18.5708,-17.7627 -9.8931,0 -17.5049,8.1657 -17.5049,17.7627 0,12.2236 10.1955,15.1096 20.0886,17.829 7.314,2.1 13.61,3.3462 19.5603,8.6962 6.0221,5.2153 9.4602,13.1729 9.4602,21.2918 0,16.7685 -14.4645,29.6859 -30.9331,29.6859 -17.325,0 -31.647,-12.5008 -31.4882,-30.2409 h 10.8662 z m -635.44421,27.474 v -100.8735 h 60.6881 l 1.8922,27.5415 -34.0466,0.03 v 13.1713 l 27.7505,0.03 v 27.4719 h -27.936 l 0.12,32.6169 h -28.4629 z"
       clip-rule="evenodd"
       clip-path="none" />
  </g>
</svg>
